<svg xmlns="http://www.w3.org/2000/svg" viewBox="0 0 425 100" role="img" aria-labelledby="fm-logo-title fm-logo-desc">
  <title id="fm-logo-title">Flotilla MCP</title>
  <desc id="fm-logo-desc">Flotilla MCP logo, light theme: a navy cargo ship carrying two tiers of teal server containers over a teal wave line, beside the wordmark "Flotilla MCP".</desc>
  <g transform="translate(6,6) scale(1.4)">
    <g transform="translate(0,-3)">
      <g fill="#14B8A6">
        <rect x="11" y="29" width="9.5" height="8" rx="1.3"/>
        <rect x="32" y="29" width="9.5" height="8" rx="1.3"/>
        <rect x="26.75" y="20" width="9.5" height="8" rx="1.3"/>
      </g>
      <g fill="#0F766E">
        <rect x="21.5" y="29" width="9.5" height="8" rx="1.3"/>
        <rect x="42.5" y="29" width="9.5" height="8" rx="1.3"/>
        <rect x="16.25" y="20" width="9.5" height="8" rx="1.3"/>
        <rect x="37.25" y="20" width="9.5" height="8" rx="1.3"/>
      </g>
      <g fill="#ECFEFF">
        <circle cx="13.8" cy="33" r="1.1"/><circle cx="24.3" cy="33" r="1.1"/><circle cx="34.8" cy="33" r="1.1"/><circle cx="45.3" cy="33" r="1.1"/>
        <circle cx="19.05" cy="24" r="1.1"/><circle cx="29.55" cy="24" r="1.1"/><circle cx="40.05" cy="24" r="1.1"/>
      </g>
      <polygon fill="#1B2A4A" points="6,38 58,38 52.5,48 12.5,48"/>
      <path d="M3,54 Q9,50 15,54 T27,54 T39,54 T51,54 T63,54" fill="none" stroke="#0F9488" stroke-width="3" stroke-linecap="round"/>
    </g>
  </g>
  <text x="108" y="66" font-family="-apple-system, BlinkMacSystemFont, 'Segoe UI', Roboto, Helvetica, Arial, sans-serif" font-size="46" font-weight="700" fill="#14213B">Flotilla <tspan fill="#0F9488">MCP</tspan></text>
</svg>
